# xmcd CD database file
#
# Track frame offsets:
#	150
#	16277
#	37379
#	81584
#	95200
#	109605
#	129712
#	143571
#	155539
#
# Disc length: 2213 seconds
#
# Revision: 0
# Processed by: cddbd v1.5.1PL0 Copyright (c) Steve Scherf et al.
# Submitted via: CDex 1.51
#
DISCID=7d08a309
DTITLE=Airto - Natural Feelings
DYEAR=1970
DGENRE=Jazz
TTITLE0=Alue
TTITLE1=Xibaba(She - ba - ba)
TTITLE2=Terror
TTITLE3=Bebé
TTITLE4=Andei
TTITLE5=Mixing
TTITLE6=The Tunnel
TTITLE7=Frevo
TTITLE8=Liamba
EXTD=YEAR: 1970
EXTT0=
EXTT1=
EXTT2=
EXTT3=
EXTT4=
EXTT5=
EXTT6=
EXTT7=
EXTT8=
PLAYORDER=
